<svg width="68" height="68" viewBox="0 0 68 68" fill="none" xmlns="http://www.w3.org/2000/svg">
<path d="M52.0625 0H15.9375C7.13546 0 0 7.13546 0 15.9375V52.0625C0 60.8645 7.13546 68 15.9375 68H52.0625C60.8645 68 68 60.8645 68 52.0625V15.9375C68 7.13546 60.8645 0 52.0625 0Z" fill="white"/>
<path fill-rule="evenodd" clip-rule="evenodd" d="M53.5732 44.5938C49.581 48.5569 43.8675 50.8874 36.9272 50.8874V39.7109C41.2452 39.7109 43.9754 38.3159 45.6123 36.6908C47.3022 35.0133 48.1854 32.7404 48.1854 30.3973C48.1854 28.0541 47.3022 25.7813 45.6123 24.1037C43.9754 22.4787 41.2452 21.0837 36.9272 21.0837V9.90723C43.8675 9.90723 49.581 12.2376 53.5732 16.2008C57.5125 20.1114 59.4438 25.2895 59.4438 30.3973C59.4438 35.5051 57.5125 40.6832 53.5732 44.5938Z" fill="#0468FF"/>
<path fill-rule="evenodd" clip-rule="evenodd" d="M9.90747 49.5089L32.4239 19.3643L41.4307 26.1468L18.9142 56.2914L9.90747 49.5089Z" fill="#1F34AB"/>
<path fill-rule="evenodd" clip-rule="evenodd" d="M16.9572 47.735L9.45703 32.8972L19.5198 27.9205L27.0199 42.7583L16.9572 47.735Z" fill="#85AEFF"/>
</svg>
